<svg width="24" height="24" viewBox="0 0 24 24" fill="none" xmlns="http://www.w3.org/2000/svg">
<path d="M14 23.993C12.397 23.993 10.891 23.369 9.757 22.235C8.623 21.101 8 19.595 8 17.993C8 16.391 8.624 14.884 9.757 13.751L14 9.254L18.252 13.762C19.376 14.884 20 16.391 20 17.993C20 19.595 19.376 21.102 18.242 22.235C17.109 23.369 15.603 23.993 14 23.993ZM14 10.711L10.474 14.447C8.515 16.407 8.515 19.579 10.464 21.528C11.408 22.472 12.664 22.993 14 22.993C15.336 22.993 16.591 22.472 17.535 21.528C18.479 20.584 19 19.328 19 17.993C19 16.658 18.479 15.402 17.535 14.458L14 10.711ZM5 11.993C3.664 11.993 2.408 11.472 1.465 10.528C0.521 9.584 0 8.329 0 6.993C0 5.657 0.521 4.402 1.465 3.458L5 0L8.531 3.454C9.479 4.402 10 5.657 10 6.993C10 8.329 9.479 9.584 8.535 10.528C7.592 11.472 6.336 11.993 5 11.993ZM5 1.398L2.168 4.169C1.416 4.92 1 5.925 1 6.993C1 8.061 1.416 9.066 2.172 9.821C3.682 11.333 6.318 11.333 7.828 9.821C8.584 9.066 9 8.061 9 6.993C9 5.925 8.584 4.92 7.828 4.165L5 1.398ZM20 9.993C18.932 9.993 17.928 9.577 17.172 8.821C16.416 8.066 16 7.061 16 5.993C16 4.925 16.416 3.92 17.172 3.165L19.983 0.044L22.843 3.182C23.583 3.92 23.999 4.925 23.999 5.994C23.999 7.063 23.583 8.067 22.827 8.822C22.071 9.578 21.067 9.994 19.999 9.994L20 9.993ZM19.987 1.532L17.896 3.853C17.312 4.438 17 5.191 17 5.993C17 6.795 17.312 7.548 17.879 8.114C19.012 9.247 20.988 9.247 22.121 8.114C22.687 7.548 23 6.795 23 5.993C23 5.191 22.687 4.438 22.121 3.872L19.987 1.532Z" fill="#D1D5DB"/>
</svg>
