<svg width="24" height="24" viewBox="0 0 24 24" fill="none" xmlns="http://www.w3.org/2000/svg">
<path d="M1.47965 18C0.971741 18 0.476854 17.906 0.00601077 17.721L0.37367 16.791C0.726301 16.93 1.09797 17 1.47965 17C3.13662 17 4.48504 15.654 4.48504 14H5.48683C5.48683 15.654 6.83525 17 8.49222 17C10.1492 17 11.4976 15.654 11.4976 14H12.4994C12.4994 15.654 13.8478 17 15.5048 17C17.1617 17 18.5102 15.654 18.5102 14H19.512C19.512 15.654 20.8604 17 22.5173 17C22.901 17 23.2757 16.929 23.6303 16.788L24 17.718C23.5272 17.906 23.0283 18 22.5173 18C21.0106 18 19.6953 17.165 19.0111 15.935C18.3268 17.166 17.0115 18 15.5048 18C13.9981 18 12.6827 17.165 11.9985 15.935C11.3143 17.166 9.99892 18 8.49222 18C6.98552 18 5.67016 17.165 4.98593 15.935C4.30171 17.166 2.98635 18 1.47965 18ZM22.5173 23C20.8604 23 19.512 21.654 19.512 20H18.5102C18.5102 21.654 17.1617 23 15.5048 23C13.8478 23 12.4994 21.654 12.4994 20H11.4976C11.4976 21.654 10.1492 23 8.49222 23C6.83525 23 5.48683 21.654 5.48683 20H4.48504C4.48504 21.654 3.13662 23 1.47965 23C1.09596 23 0.722294 22.929 0.370664 22.789L0 23.719C0.470844 23.906 0.967734 24 1.47965 24C2.98635 24 4.30171 23.165 4.98593 21.935C5.67016 23.166 6.98552 24 8.49222 24C9.99892 24 11.3143 23.165 11.9985 21.935C12.6827 23.166 13.9981 24 15.5048 24C17.0115 24 18.3268 23.165 19.0111 21.935C19.6953 23.166 21.0106 24 22.5173 24C23.0293 24 23.5262 23.905 23.997 23.719L23.6263 22.789C23.2747 22.929 22.901 23 22.5173 23ZM11.9985 11.005C12.5034 11.005 13.0093 10.813 13.395 10.429L16.6037 7.227L15.8955 6.52L12.6867 9.722C12.6296 9.779 12.5665 9.828 12.4994 9.868V0H11.4976V9.867C11.4315 9.827 11.3684 9.779 11.3103 9.721L8.10152 6.519L7.39325 7.226L10.602 10.428C10.9867 10.813 11.4926 11.004 11.9985 11.004V11.005Z" fill="#D1D5DB"/>
</svg>
