<svg width="13" height="24" viewBox="0 0 13 24" fill="none" xmlns="http://www.w3.org/2000/svg">
<path d="M6.99883 15.051V7H5.99883V15.051C4.85883 15.283 3.99883 16.293 3.99883 17.5C3.99883 18.879 5.12083 20 6.49883 20C7.87683 20 8.99883 18.879 8.99883 17.5C8.99883 16.292 8.13883 15.283 6.99883 15.051ZM6.49883 19C5.67183 19 4.99883 18.327 4.99883 17.5C4.99883 16.673 5.67183 16 6.49883 16C7.32583 16 7.99883 16.673 7.99883 17.5C7.99883 18.327 7.32583 19 6.49883 19ZM10.9988 12.819V4.5C10.9988 2.019 8.97983 0 6.49883 0C4.01783 0 1.99883 2.019 1.99883 4.5V12.819C0.372827 14.38 -0.321174 16.624 0.139826 18.868C0.647826 21.34 2.64583 23.344 5.11083 23.855C5.56983 23.951 6.03083 23.998 6.48683 23.998C7.98283 23.998 9.42983 23.495 10.5988 22.544C12.1238 21.303 12.9988 19.464 12.9988 17.5C12.9988 15.737 12.2728 14.044 10.9988 12.819ZM9.96783 21.768C8.67683 22.819 6.97883 23.222 5.31383 22.876C3.23383 22.444 1.54783 20.752 1.11883 18.666C0.714826 16.698 1.35483 14.733 2.83283 13.408L2.99883 13.26V4.5C2.99883 2.57 4.56883 1 6.49883 1C8.42883 1 9.99883 2.57 9.99883 4.5V13.261L10.1648 13.409C11.3308 14.455 11.9988 15.946 11.9988 17.5C11.9988 19.162 11.2588 20.717 9.96783 21.768Z" fill="#D1D5DB"/>
</svg>
