<svg width="24" height="24" viewBox="0 0 24 24" fill="none" xmlns="http://www.w3.org/2000/svg">
<path d="M8 12H0V11H8V12ZM20.5 11H20.325C21.346 10.174 22 8.912 22 7.5C22 5.019 19.981 3 17.5 3C15.019 3 13 5.019 13 7.5V8H14V7.5C14 5.57 15.57 4 17.5 4C19.43 4 21 5.57 21 7.5C21 9.43 19.43 11 17.5 11H10V12H20.5C21.878 12 23 13.121 23 14.5C23 15.879 21.878 17 20.5 17C19.122 17 18 15.879 18 14.5V14H17V14.5C17 16.43 18.57 18 20.5 18C22.43 18 24 16.43 24 14.5C24 12.57 22.43 11 20.5 11ZM11 16H0V17H11C12.654 17 14 18.346 14 20C14 21.654 12.654 23 11 23C9.346 23 8 21.654 8 20H7C7 22.206 8.794 24 11 24C13.206 24 15 22.206 15 20C15 17.794 13.206 16 11 16ZM11 3.5C11 1.57 9.43 0 7.5 0C5.57 0 4 1.57 4 3.5V4H5V3.5C5 2.121 6.122 1 7.5 1C8.878 1 10 2.121 10 3.5C10 4.879 8.878 6 7.5 6H0V7H7.5C9.43 7 11 5.43 11 3.5Z" fill="#D1D5DB"/>
</svg>
